<?xml version="1.0" encoding="UTF-8" standalone="no"?>
<svg
   xmlns:dc="http://purl.org/dc/elements/1.1/"
   xmlns:cc="http://creativecommons.org/ns#"
   xmlns:rdf="http://www.w3.org/1999/02/22-rdf-syntax-ns#"
   xmlns:svg="http://www.w3.org/2000/svg"
   xmlns="http://www.w3.org/2000/svg"
   xmlns:sodipodi="http://sodipodi.sourceforge.net/DTD/sodipodi-0.dtd"
   xmlns:inkscape="http://www.inkscape.org/namespaces/inkscape"
   inkscape:version="1.0 (4035a4fb49, 2020-05-01)"
   sodipodi:docname="edu.svg"
   version="1.1"
   viewBox="0 0 744 539.28592"
   height="539.28592"
   width="744"
   data-name="Layer 1"
   id="b7798a4d-5163-44df-883c-b45df1683271">
  <metadata
     id="metadata73">
    <rdf:RDF>
      <cc:Work
         rdf:about="">
        <dc:format>image/svg+xml</dc:format>
        <dc:type
           rdf:resource="http://purl.org/dc/dcmitype/StillImage" />
      </cc:Work>
    </rdf:RDF>
  </metadata>
  <defs
     id="defs71" />
  <sodipodi:namedview
     inkscape:current-layer="b7798a4d-5163-44df-883c-b45df1683271"
     inkscape:window-maximized="1"
     inkscape:window-y="-9"
     inkscape:window-x="-9"
     inkscape:cy="739.8289"
     inkscape:cx="880.54626"
     inkscape:zoom="0.38476804"
     showgrid="false"
     id="namedview69"
     inkscape:window-height="1001"
     inkscape:window-width="1920"
     inkscape:pageshadow="2"
     inkscape:pageopacity="0"
     guidetolerance="10"
     gridtolerance="10"
     objecttolerance="10"
     borderopacity="1"
     bordercolor="#666666"
     pagecolor="#ffffff" />
  <path
     style="stroke-width:0.503787"
     id="path2"
     fill="#f2f2f2"
     d="m 334.93469,471.29801 v 65.46988 H 170.79558 c -18.70145,0 -33.91713,-14.68531 -33.91713,-32.73494 0,-18.04963 15.21566,-32.73494 33.91713,-32.73494 z" />
  <path
     style="stroke-width:0.503787"
     id="path4"
     fill="#7fff63"
     d="m 338.96637,536.26428 a 2.5208074,2.5190795 0 0 1 -2.5198,2.51806 H 167.87198 a 34.521254,34.49759 0 1 1 0,-68.99517 h 168.57459 a 2.5197995,2.5180722 0 0 1 0,5.03614 H 167.87198 a 29.481653,29.461445 0 1 0 0,58.92289 h 168.57459 a 2.5208074,2.5190795 0 0 1 2.5198,2.51808 z" />
  <path
     style="stroke-width:0.503787"
     id="path6"
     fill="#cccccc"
     d="M 334.93469,486.40644 H 158.54872 a 0.5039599,0.50361444 0 1 1 0,-1.00722 h 176.38597 a 0.5039599,0.50361444 0 0 1 0,1.00722 z" />
  <path
     style="stroke-width:0.503787"
     id="path8"
     fill="#cccccc"
     d="M 334.93469,498.49319 H 158.54872 a 0.50396114,0.50361569 0 1 1 0,-1.00723 h 176.38597 a 0.50396114,0.50361569 0 0 1 0,1.00723 z" />
  <path
     style="stroke-width:0.503787"
     id="path10"
     fill="#cccccc"
     d="M 334.93469,510.57994 H 158.54872 a 0.50396114,0.50361569 0 1 1 0,-1.00723 h 176.38597 a 0.50396114,0.50361569 0 0 1 0,1.00723 z" />
  <path
     style="stroke-width:0.503787"
     id="path12"
     fill="#cccccc"
     d="M 334.93469,522.66668 H 158.54872 a 0.5039599,0.50361444 0 1 1 0,-1.00722 h 176.38597 a 0.5039599,0.50361444 0 0 1 0,1.00722 z" />
  <path
     style="stroke-width:0.503787"
     id="path14"
     fill="#f2f2f2"
     d="M 461.79017,483.62191 420.68482,534.60202 292.87294,431.68829 c -14.56247,-11.72566 -17.19041,-32.7009 -5.85793,-46.75578 11.33249,-14.05489 32.40082,-15.94998 46.96328,-4.22431 z" />
  <path
     style="stroke-width:0.503787"
     id="path16"
     fill="#cccccc"
     d="m 424.1404,536.73767 a 2.5208074,2.5190795 0 0 1 -3.54309,0.38089 L 289.33161,431.42384 a 34.521257,34.497594 0 0 1 43.31871,-53.7252 l 131.26571,105.69475 a 2.5197995,2.5180722 0 1 1 -3.16195,3.92154 L 329.48837,381.62021 a 29.481654,29.461446 0 1 0 -36.99481,45.88208 l 131.26569,105.69473 a 2.5208074,2.5190795 0 0 1 0.38115,3.54065 z" />
  <path
     style="stroke-width:0.503787"
     id="path18"
     fill="#cccccc"
     d="M 452.30434,495.38655 314.95605,384.79417 a 0.50396141,0.50361597 0 1 1 0.63239,-0.78431 l 137.34827,110.5924 a 0.50396408,0.50361863 0 1 1 -0.63239,0.78432 z" />
  <path
     style="stroke-width:0.503787"
     id="path20"
     fill="#cccccc"
     d="M 444.71565,504.79827 307.36737,394.20588 a 0.50396435,0.50361889 0 0 1 0.63239,-0.78432 l 137.34827,110.5924 a 0.50396045,0.503615 0 1 1 -0.63238,0.78431 z" />
  <path
     style="stroke-width:0.503787"
     id="path22"
     fill="#cccccc"
     d="M 437.12696,514.20999 299.77869,403.61759 a 0.50396145,0.503616 0 0 1 0.63239,-0.78431 l 137.34828,110.59239 a 0.50396108,0.50361562 0 1 1 -0.6324,0.7843 z" />
  <path
     style="stroke-width:0.503787"
     id="path24"
     fill="#cccccc"
     d="M 429.53828,523.62168 292.19001,413.02931 a 0.50396108,0.50361562 0 1 1 0.63239,-0.78431 l 137.34827,110.59238 a 0.5039599,0.50361444 0 1 1 -0.63239,0.7843 z" />
  <path
     style="stroke-width:0.503787"
     id="path26"
     fill="#cccccc"
     d="M 470.44237,539.28596 H 96.504118 a 0.50396114,0.50361569 0 0 1 0,-1.00723 H 470.44237 a 0.50396114,0.50361569 0 0 1 0,1.00723 z" />
  <polygon
     transform="matrix(0.5039599,0,0,0.50361444,96.000158,267.69376)"
     id="polygon28"
     fill="#ffb8b8"
     points="338.085,346.527 338.081,390.622 326.649,390.621 321.212,346.525 " />
  <path
     style="stroke-width:0.503787"
     id="path30"
     fill="#2f2e41"
     d="m 256.50252,462.7711 h 11.11121 v 6.99116 h -18.10715 v 0 a 6.9959361,6.9911404 0 0 1 6.99594,-6.99116 z" />
  <polygon
     transform="matrix(0.5039599,0,0,0.50361444,96.000158,267.69376)"
     id="polygon32"
     fill="#ffb8b8"
     points="221.29,346.527 221.286,390.622 209.854,390.621 204.417,346.525 " />
  <path
     style="stroke-width:0.503787"
     id="path34"
     fill="#2f2e41"
     d="m 197.64275,462.7711 h 11.11121 v 6.99116 h -18.10714 v 0 a 6.9959361,6.9911404 0 0 1 6.99593,-6.99116 z" />
  <path
     style="stroke-width:0.503787"
     id="path36"
     fill="#2f2e41"
     d="m 226.76307,299.68994 v -2.51812 a 16.252707,16.241566 0 0 1 16.2527,-16.24155 h 3e-5 a 16.252707,16.241566 0 0 1 16.25271,16.24155 v 2.51812 a 11.717067,11.709035 0 0 1 -11.71707,11.70903 h -9.07128 a 11.717067,11.709035 0 0 1 -11.71709,-11.70903 z" />
  <ellipse
     style="stroke-width:0.503787"
     ry="12.369289"
     rx="12.377773"
     id="circle38"
     fill="#ffb8b8"
     cy="299.89615"
     cx="243.01576" />
  <path
     style="stroke-width:0.503787"
     id="path40"
     fill="#ffb8b8"
     d="M 300.85366,366.46165" />
  <path
     style="stroke-width:0.503787"
     id="path42"
     fill="#ffb8b8"
     d="m 175.68861,342.40777 a 4.725632,4.7223926 0 0 1 7.19669,0.84476 l 10.61068,-2.00574 2.79239,6.1464 -15.02415,2.62216 a 4.7512281,4.7479712 0 0 1 -5.57561,-7.6076 z" />
  <path
     style="stroke-width:0.503787"
     id="path44"
     fill="#cccccc"
     d="m 233.36579,320.05518 0.13878,0.21011 -17.39963,11.4544 -29.35985,9.36889 a 1.7677905,1.7665787 0 0 0 -1.21555,1.88264 l 0.64048,5.51287 a 1.7642276,1.7630182 0 0 0 2.12179,1.52016 l 27.63199,-5.91886 a 9.9813949,9.9745519 0 0 0 3.71493,-1.63448 l 19.54752,-13.89819 a 5.0495975,5.0461361 0 0 0 2.09567,-4.50609 5.0271008,5.0236548 0 0 0 -7.77738,-3.78134 z" />
  <path
     style="stroke-width:0.503787"
     id="path46"
     fill="#2f2e41"
     d="m 260.72106,458.11475 a 2.2771277,2.2755667 0 0 1 -2.08524,-1.36035 l -26.41249,-65.21857 a 0.75584914,0.75533101 0 0 0 -1.41541,0.0797 l -21.54848,63.49257 a 2.268258,2.2667032 0 0 1 -2.96409,1.45601 l -7.22596,-2.70791 a 2.2622104,2.2606598 0 0 1 -1.45997,-1.86568 c -3.25076,-28.2993 25.09722,-99.73066 25.38402,-100.44871 l 0.0794,-0.19892 25.8416,5.71238 0.0538,0.0585 c 10.30989,11.2396 18.78431,82.13045 20.3785,96.22749 a 2.2570197,2.2554725 0 0 1 -1.49736,2.39044 l -6.37824,2.25423 a 2.2459527,2.2444132 0 0 1 -0.75002,0.12883 z" />
  <path
     style="stroke-width:0.503787"
     id="path48"
     fill="#cccccc"
     d="m 238.45578,359.35443 c -6.261,0 -13.24125,-1.24745 -15.38985,-6.39624 l -0.0495,-0.11829 0.0668,-0.10966 c 1.69594,-2.7807 3.93744,-7.52422 2.73265,-8.41465 -2.37326,-1.75354 -3.52489,-4.63828 -3.42265,-8.57424 0.22196,-8.54422 6.04777,-16.13016 14.49686,-18.87667 h 1.2e-4 a 64.326555,64.28246 0 0 1 7.18793,-1.84947 12.236515,12.228126 0 0 1 10.14601,2.50381 12.360322,12.351849 0 0 1 4.58399,9.50352 c 0.0886,9.13096 -1.3181,21.84844 -8.52302,30.57957 a 2.2414977,2.2399612 0 0 1 -1.32693,0.77117 61.595491,61.553268 0 0 1 -10.50247,0.98115 z" />
  <path
     style="stroke-width:0.503787"
     id="path50"
     fill="#ffb8b8"
     d="m 236.12677,359.01254 a 4.8158055,4.8125044 0 0 1 5.88548,-3.35617 4.7409624,4.7377126 0 0 1 0.72964,0.27006 l 8.05663,-7.32701 5.60302,3.77222 -11.52142,10.18858 a 4.8073037,4.8040084 0 0 1 -5.44941,2.30988 4.73429,4.7310447 0 0 1 -3.30394,-5.85756 z" />
  <path
     style="stroke-width:0.503787"
     id="path52"
     fill="#cccccc"
     d="m 249.52235,359.10558 a 2.2615806,2.2600303 0 0 1 -1.43401,-0.51124 l -3.17718,-2.59454 a 2.2677943,2.2662398 0 0 1 0.055,-3.5531 l 13.32553,-10.21318 a 0.75762307,0.75710373 0 0 0 0.14285,-1.05494 l -8.22479,-10.86607 a 6.6951425,6.6905531 0 0 1 0.44724,-8.61899 v 0 a 6.6764255,6.6718489 0 0 1 9.01467,-0.72051 l 0.052,0.0548 8.58848,12.28937 a 7.6564965,7.6512482 0 0 1 -0.18148,12.1802 l -17.25841,13.1638 a 2.2715287,2.2699717 0 0 1 -1.34996,0.44437 z" />
  <path
     style="stroke-width:0.503787"
     id="path54"
     fill="#2f2e41"
     d="m 232.05181,296.41642 v -6.13712 l 10.96396,-4.78433 10.45434,4.78433 v 6.13712 a 1.0079198,1.0072289 0 0 1 -1.00792,1.00724 h -19.40246 a 1.0079198,1.0072289 0 0 1 -1.00792,-1.00724 z" />
  <path
     style="stroke-width:0.503787"
     id="path56"
     fill="#2f2e41"
     d="m 242.51245,281.74442 c -1.61207,-5.15626 1.77358,-11.06558 6.77869,-13.10657 5.00509,-2.04097 10.99309,-0.61427 15.2164,2.75774 4.2233,3.37201 6.84358,8.42266 8.23197,13.64351 1.38839,5.22085 1.65193,10.66495 1.90825,16.06094 6.14943,1.1288 10.33261,8.41755 8.20233,14.29174 -2.13028,5.87419 -10.01503,8.7925 -15.46038,5.72222 -5.44535,-3.07028 -7.02253,-11.32357 -3.0925,-16.183 a 13.291363,13.282252 0 0 0 -15.46539,-20.60272 c -3.03073,1.26656 -6.83347,-2.02421 -6.31937,-2.58386 z" />
  <path
     style="stroke-width:0.503787"
     id="path58"
     fill="#7fff63"
     d="m 173.41554,318.60052 a 52.637946,52.601864 0 0 1 -21.34177,-4.67097 2.2539808,2.2524357 0 0 1 -1.33643,-2.06684 v -18.3406 a 2.2703394,2.268783 0 0 1 2.26782,-2.26627 h 40.82075 a 2.2703797,2.2688234 0 0 1 2.26783,2.26627 v 18.34063 a 2.2540716,2.2525264 0 0 1 -1.33643,2.06683 v 0 a 52.637952,52.601868 0 0 1 -21.34177,4.67095 z" />
  <path
     style="stroke-width:0.503787"
     id="path60"
     fill="#7fff63"
     d="m 173.40994,303.74241 a 2.2704451,2.2688888 0 0 1 -0.88124,-0.17704 l -32.37033,-13.64776 a 2.2676432,2.2660887 0 0 1 0.0771,-4.20669 l 32.37075,-12.27195 a 2.2595798,2.2580309 0 0 1 1.61837,0.004 l 31.93698,12.27191 a 2.26788,2.2663254 0 0 1 0.0776,4.19909 l -31.93734,13.64752 a 2.2713473,2.2697902 0 0 1 -0.89199,0.18148 z" />
  <ellipse
     style="stroke-width:0.503787"
     ry="3.0216866"
     rx="3.0237594"
     id="circle62"
     fill="#3f3d56"
     cy="312.15582"
     cx="154.51703" />
  <path
     style="stroke-width:0.503787"
     id="path64"
     opacity="0.2"
     d="m 206.34962,287.97621 -31.93748,13.64755 a 2.0158044,2.0144225 0 0 1 -1.57611,0.004 l -32.37031,-13.64754 a 1.9777957,1.9764399 0 0 1 -0.96387,-0.84663 2.0143277,2.0129469 0 0 0 0.96387,2.86108 l 32.37032,13.64736 a 2.0158044,2.0144225 0 0 0 1.5761,-0.004 l 31.93748,-13.64753 a 2.0143933,2.0130124 0 0 0 0.95476,-2.85712 1.9789296,1.977573 0 0 1 -0.95476,0.84266 z" />
  <path
     style="stroke-width:0.503787"
     id="path66"
     fill="#3f3d56"
     d="m 154.77111,312.14402 a 0.5039599,0.50361444 0 0 0 0.50396,-0.50362 v -16.85165 l 16.62121,-6.05099 a 0.50402141,0.50367591 0 0 0 0.015,-1.00724 l -16.62121,6.051 a 0.98860302,0.98792535 0 0 0 -0.72235,0.28967 1.0007081,1.0000222 0 0 0 -0.30058,0.71756 v 16.85165 a 0.50398509,0.50363961 0 0 0 0.50396,0.50362 z" />
</svg>
