<?xml version="1.0" encoding="UTF-8" standalone="no"?>
<svg
   xmlns:dc="http://purl.org/dc/elements/1.1/"
   xmlns:cc="http://creativecommons.org/ns#"
   xmlns:rdf="http://www.w3.org/1999/02/22-rdf-syntax-ns#"
   xmlns:svg="http://www.w3.org/2000/svg"
   xmlns="http://www.w3.org/2000/svg"
   xmlns:sodipodi="http://sodipodi.sourceforge.net/DTD/sodipodi-0.dtd"
   xmlns:inkscape="http://www.inkscape.org/namespaces/inkscape"
   inkscape:version="1.0 (4035a4fb49, 2020-05-01)"
   sodipodi:docname="wave (2).svg"
   id="svg4"
   version="1.1"
   viewBox="0 0 1440 320">
  <metadata
     id="metadata10">
    <rdf:RDF>
      <cc:Work
         rdf:about="">
        <dc:format>image/svg+xml</dc:format>
        <dc:type
           rdf:resource="http://purl.org/dc/dcmitype/StillImage" />
      </cc:Work>
    </rdf:RDF>
  </metadata>
  <defs
     id="defs8" />
  <sodipodi:namedview
     inkscape:current-layer="svg4"
     inkscape:window-maximized="1"
     inkscape:window-y="-9"
     inkscape:window-x="-9"
     inkscape:cy="414.719"
     inkscape:cx="1047.8962"
     inkscape:zoom="0.83888889"
     showgrid="false"
     id="namedview6"
     inkscape:window-height="1001"
     inkscape:window-width="1920"
     inkscape:pageshadow="2"
     inkscape:pageopacity="0"
     guidetolerance="10"
     gridtolerance="10"
     objecttolerance="10"
     borderopacity="1"
     bordercolor="#666666"
     pagecolor="#ffffff" />
  <path
     style="fill:#009137;fill-opacity:1"
     id="path2"
     d="M 0,34 24,76.7 C 48,119 96,205 144,215.3 c 48,10.7 96,-53.3 144,-64 48,-10.3 96,31.7 144,48 48,15.7 96,5.7 144,16 48,10.7 96,42.7 144,21.4 48,-21.7 96,-95.7 144,-96 48,0.3 96,74.3 144,64 C 1056,194 1104,98 1152,98 c 48,0 96,96 144,133.3 48,37.7 96,15.7 120,5.4 l 24,-10.7 v 96 h -24 c -24,0 -72,0 -120,0 -48,0 -96,0 -144,0 -48,0 -96,0 -144,0 -48,0 -96,0 -144,0 -48,0 -96,0 -144,0 -48,0 -96,0 -144,0 -48,0 -96,0 -144,0 -48,0 -96,0 -144,0 -48,0 -96,0 -144,0 -48,0 -96,0 -120,0 H 0 Z"
     fill-opacity="1"
     fill="#0099ff" />
  <path
     style="fill:#ffffff;fill-opacity:1"
     fill="#0099ff"
     fill-opacity="1"
     d="M -1.3e-6,58.834438 23.999999,101.53444 c 24,42.3 72.000001,128.3 120.000001,138.6 48,10.7 96,-53.3 144,-64 48,-10.3 96,31.7 144,48 48,15.7 96,5.7 144,16 48,10.7 96,42.7 144,21.4 48,-21.7 96,-95.7 144,-96 48,0.3 96,74.3 144,64 48,-10.7 96,-106.7 144,-106.7 48,0 96,96 144,133.3 48,37.7 96,15.7 120,5.4 l 24,-10.7 v 96 h -24 c -24,0 -72,0 -120,0 -48,0 -96,0 -144,0 -48,0 -96,0 -144,0 -48,0 -96,0 -144,0 -48,0 -96,0 -144,0 -48,0 -96,0 -144,0 -48,0 -96,0 -144,0 -48,0 -96,0 -144,0 -48,0 -96,0 -144,0 -48,0 -96.000001,0 -120.000001,0 H -1.3e-6 Z"
     id="path2-0" />
  <path
     style="fill:#3ab800;fill-opacity:1"
     fill="#0099ff"
     fill-opacity="1"
     d="M -1.1920537,67.761589 22.807947,110.46159 c 24,42.3 72,128.3 120.000003,138.6 48,10.7 96,-53.3 144,-64 48,-10.3 96,31.7 144,48 48,15.7 96,5.7 144,16 48,10.7 96,42.7 144,21.4 48,-21.7 96,-95.7 144,-96 48,0.3 96,74.3 143.99995,64 48,-10.7 96.0001,-106.7 144.0001,-106.7 48,0 96,96 144,133.3 48,37.7 96,15.7 120,5.4 l 24,-10.7 v 96 h -24 c -24,0 -72,0 -120,0 -48,0 -96,0 -144,0 -48,0 -96.0001,0 -144.0001,0 -47.99995,0 -95.99995,0 -143.99995,0 -48,0 -96,0 -144,0 -48,0 -96,0 -144,0 -48,0 -96,0 -144,0 -48,0 -96,0 -144,0 -48,0 -96,0 -144,0 -48.000003,0 -96.000003,0 -120.000003,0 H -1.1920537 Z"
     id="path2-6" />
  <path
     style="fill:#ffffff;fill-opacity:1"
     id="path2-6-8"
     d="M -2.0000515,83.178808 21.999948,125.87881 c 24,42.3 72,128.3 120.000002,138.6 48,10.7 96,-53.3 144,-64 48,-10.3 96,31.7 144,48 48,15.7 96,5.7 144,16 48,10.7 96,42.7 144,21.4 48,-21.7 96,-95.7 144,-96 48,0.3 96,74.3 143.99995,64 48,-10.7 96.0001,-106.7 144.0001,-106.7 48,0 96,96 144,133.3 48,37.7 96,15.7 120,5.4 l 24,-10.7 v 96 h -24 c -24,0 -72,0 -120,0 -48,0 -96,0 -144,0 -48,0 -96.0001,0 -144.0001,0 -47.99995,0 -95.99995,0 -143.99995,0 -48,0 -96,0 -144,0 -48,0 -96,0 -144,0 -48,0 -96,0 -144,0 -48,0 -96,0 -144,0 -48,0 -96,0 -144,0 -48.000002,0 -96.000002,0 -120.000002,0 H -2.0000515 Z"
     fill-opacity="1"
     fill="#0099ff" />
  <path
     style="fill:#20e020;fill-opacity:1"
     fill="#0099ff"
     fill-opacity="1"
     d="M -2.0397379,89.178808 21.960262,131.87881 c 24,42.3 71.999998,128.3 119.999998,138.6 48,10.7 96,-53.3 144,-64 48,-10.3 96,31.7 144,48 48,15.7 96,5.7 144,16 48,10.7 96,42.7 144,21.4 48.00003,-21.7 96.00003,-95.7 144.00003,-96 48,0.3 96,74.3 144.00001,64 48,-10.7 96,-106.7 144,-106.7 48,0 96,96 144,133.3 48,37.7 96,15.7 120,5.4 l 24,-10.7 v 96 h -24 c -24,0 -72,0 -120,0 -48,0 -96,0 -144,0 -48,0 -96,0 -144,0 -48.00001,0 -96.00001,0 -144.00001,0 -48,0 -96,0 -144.00003,0 -48,0 -96,0 -144,0 -48,0 -96,0 -144,0 -48,0 -96,0 -144,0 -48,0 -96,0 -144,0 -48,0 -95.999998,0 -119.999998,0 H -2.0397379 Z"
     id="path2-1" />
  <path
     style="fill:#ffffff;fill-opacity:1"
     fill="#0099ff"
     fill-opacity="1"
     d="m -2.000047,95.99999 24,42.7 C 45.999953,181 93.99995,267 141.99995,277.3 c 48,10.7 96,-53.3 144,-64 48,-10.3 96,31.7 144,48 48,15.7 96,5.7 144,16 48,10.7 96,42.7 144,21.4 48,-21.7 96,-95.7 144,-96 48,0.3 96,74.3 144.00005,64 48,-10.7 96,-106.70001 144,-106.70001 48,0 96,96.00001 144,133.30001 48,37.7 96,15.7 120,5.4 l 24,-10.7 v 96 h -24 c -24,0 -72,0 -120,0 -48,0 -96,0 -144,0 -48,0 -96,0 -144,0 -48.00005,0 -96.00005,0 -144.00005,0 -48,0 -96,0 -144,0 -48,0 -96,0 -144,0 -48,0 -96,0 -144,0 -48,0 -96,0 -144,0 -48,0 -96,0 -144,0 -48,0 -95.999997,0 -119.999997,0 h -24 z"
     id="path2-11" />
</svg>
